<svg width="120" height="120" viewBox="0 0 120 120" fill="none" xmlns="http://www.w3.org/2000/svg">
  <!-- 背景圆形 -->
  <circle cx="60" cy="60" r="55" fill="#f5f5f5" stroke="#e0e0e0" stroke-width="2"/>
  
  <!-- T恤主体 -->
  <path d="M35 45 L35 40 C35 38 37 36 39 36 L45 36 C47 34 53 34 55 34 L65 34 C67 34 73 34 75 36 L81 36 C83 36 85 38 85 40 L85 45 L80 50 L80 85 C80 87 78 89 76 89 L44 89 C42 89 40 87 40 85 L40 50 L35 45 Z" fill="#1a237e"/>
  
  <!-- T恤领口 -->
  <path d="M50 36 C50 38 52 40 55 40 L65 40 C68 40 70 38 70 36" fill="#f5f5f5"/>
  
  <!-- Team7 标志 -->
  <text x="60" y="65" text-anchor="middle" fill="#ffffff" font-family="Arial, sans-serif" font-size="12" font-weight="bold">T7</text>
  
  <!-- 装饰线条 -->
  <line x1="45" y1="75" x2="75" y2="75" stroke="#3949ab" stroke-width="2" opacity="0.6"/>
</svg>